<?xml version="1.0" standalone="no"?>
<!DOCTYPE svg PUBLIC "-//W3C//DTD SVG 20010904//EN"
 "http://www.w3.org/TR/2001/REC-SVG-20010904/DTD/svg10.dtd">
<svg version="1.0" xmlns="http://www.w3.org/2000/svg"
 width="512.000000pt" height="512.000000pt" viewBox="0 0 512.000000 512.000000"
 preserveAspectRatio="xMidYMid meet">
<metadata>
Created by potrace 1.11, written by Peter Selinger 2001-2013
</metadata>
<g transform="translate(0.000000,512.000000) scale(0.100000,-0.100000)"
fill="#000000" stroke="none">
<path d="M2360 4404 c-226 -40 -445 -148 -595 -293 -45 -44 -55 -59 -55 -87 0
-42 32 -74 76 -74 25 0 45 12 86 48 105 96 231 170 369 216 80 27 97 31 184
41 183 23 355 -1 525 -75 106 -45 176 -90 268 -169 57 -49 78 -61 105 -61 41
0 68 27 72 72 3 28 -4 40 -48 83 -152 148 -350 247 -602 301 -61 13 -310 12
-385 -2z"/>
<path d="M2431 3864 c-91 -19 -148 -42 -216 -88 -76 -51 -125 -100 -125 -125
0 -52 44 -95 90 -86 11 2 38 19 60 38 21 18 52 40 67 48 15 7 30 17 33 21 3 3
32 15 65 26 47 16 81 20 160 18 55 -2 114 -9 130 -16 78 -33 118 -56 154 -86
45 -39 84 -56 108 -47 36 13 53 36 53 73 0 31 -7 44 -43 77 -59 54 -153 108
-234 133 -85 26 -217 32 -302 14z"/>
<path d="M2522 3365 c-60 -26 -84 -68 -75 -126 11 -74 92 -117 159 -85 95 45
90 171 -7 210 -22 9 -40 16 -42 16 -1 -1 -17 -7 -35 -15z"/>
<path d="M901 2854 c-222 -40 -422 -145 -580 -305 -212 -213 -325 -493 -316
-784 4 -127 12 -181 40 -280 115 -394 444 -691 855 -769 72 -14 309 -15 385
-2 145 25 304 79 435 149 93 49 239 144 291 189 15 13 41 35 59 50 167 138
372 375 560 648 32 47 163 225 169 230 3 3 26 30 51 60 135 166 314 333 471
440 319 218 690 288 999 188 327 -105 577 -398 630 -738 9 -63 11 -123 8 -240
-1 -33 -31 -159 -55 -225 -58 -165 -168 -313 -313 -422 -382 -287 -912 -240
-1370 121 -68 53 -108 89 -192 169 -58 55 -94 62 -133 22 -45 -44 -35 -73 58
-164 46 -45 93 -88 105 -97 13 -9 34 -26 48 -39 45 -42 196 -141 294 -193 94
-50 297 -124 375 -137 22 -4 65 -10 95 -15 80 -12 314 -4 394 14 100 23 230
74 316 125 41 25 77 47 80 51 3 3 21 17 40 32 72 55 130 114 210 214 30 38 99
160 124 221 201 484 26 1044 -415 1329 -112 72 -262 135 -364 151 -16 3 -50 9
-75 14 -75 14 -314 3 -415 -19 -96 -22 -200 -55 -277 -91 -26 -11 -49 -21 -52
-21 -3 0 -35 -18 -71 -40 -36 -22 -70 -40 -75 -40 -6 0 -10 -4 -10 -10 0 -5
-5 -10 -10 -10 -6 0 -37 -19 -68 -42 -197 -145 -381 -325 -537 -528 -27 -36
-52 -67 -55 -70 -4 -3 -25 -32 -48 -65 -122 -177 -152 -219 -227 -315 -85
-108 -95 -119 -200 -231 -315 -335 -673 -516 -1032 -521 -114 -1 -171 6 -268
34 -286 83 -514 293 -619 570 -21 58 -34 110 -51 203 -13 73 -4 252 16 330 95
370 364 625 744 705 63 13 243 17 308 6 20 -3 54 -9 75 -12 59 -10 233 -69
303 -104 66 -33 180 -99 189 -110 3 -3 16 -13 30 -22 46 -29 150 -115 232
-192 88 -83 114 -92 162 -55 19 15 26 30 26 54 0 28 -12 44 -77 108 -249 242
-532 406 -808 468 -27 6 -59 13 -70 16 -50 12 -324 10 -394 -3z"/>
</g>
</svg>
