<?xml version="1.0" standalone="no"?>
<!DOCTYPE svg PUBLIC "-//W3C//DTD SVG 20010904//EN"
 "http://www.w3.org/TR/2001/REC-SVG-20010904/DTD/svg10.dtd">
<svg version="1.0" xmlns="http://www.w3.org/2000/svg"
 width="781.000000pt" height="781.000000pt" viewBox="0 0 781.000000 781.000000"
 preserveAspectRatio="xMidYMid meet">
<metadata>
Created by potrace 1.11, written by Peter Selinger 2001-2013
</metadata>
<g transform="translate(0.000000,781.000000) scale(0.100000,-0.100000)"
fill="#000000" stroke="none">
<path d="M1630 7802 c-36 -3 -180 -26 -235 -37 -113 -23 -355 -114 -417 -157
-14 -10 -29 -18 -33 -18 -8 0 -142 -90 -177 -118 -191 -156 -324 -308 -444
-509 -95 -160 -175 -373 -198 -529 -18 -118 -23 -191 -21 -304 3 -162 10 -210
60 -441 11 -50 71 -212 106 -286 165 -346 426 -598 812 -785 100 -49 127 -66
127 -82 0 -19 -21 -85 -41 -131 -13 -30 -77 -259 -83 -301 -4 -20 -8 -40 -11
-44 -2 -3 -7 -22 -10 -41 -3 -19 -10 -59 -15 -89 -49 -288 -60 -470 -46 -772
4 -81 9 -156 10 -165 2 -10 7 -47 11 -83 4 -36 9 -74 11 -85 2 -10 6 -37 9
-60 3 -22 8 -47 10 -55 2 -8 7 -28 10 -45 49 -268 190 -643 351 -935 532 -966
1519 -1613 2614 -1717 105 -10 475 -10 590 -1 499 41 965 185 1381 424 47 27
83 42 93 38 9 -3 34 -36 55 -73 145 -247 427 -401 726 -395 121 2 174 11 275
46 425 148 644 614 502 1063 -57 178 -198 347 -375 449 -27 15 -51 34 -54 42
-3 7 16 50 42 95 57 98 133 251 167 334 37 90 41 100 42 105 1 3 4 10 7 15 13
21 97 289 115 365 2 8 12 51 23 95 10 44 23 100 27 125 4 25 8 47 9 50 2 10
17 106 20 135 16 122 27 288 28 400 0 83 -12 329 -18 365 -2 14 -9 63 -15 110
-6 47 -18 117 -25 155 -8 39 -17 84 -19 100 -16 92 -91 346 -141 480 -167 446
-421 834 -771 1180 -120 119 -129 127 -249 225 -442 362 -931 591 -1483 694
-70 14 -156 27 -192 31 -36 3 -72 8 -80 10 -89 23 -560 23 -735 0 -148 -19
-146 -19 -280 -46 -55 -10 -134 -29 -175 -40 -120 -32 -109 -38 -152 81 -122
338 -305 592 -573 796 -206 156 -461 275 -665 309 -19 3 -62 11 -95 17 -57 10
-330 17 -405 10z m280 -1149 c192 -53 343 -205 385 -387 55 -236 -25 -440
-225 -576 -65 -44 -72 -46 -89 -26 -14 16 -10 21 59 66 195 126 271 358 192
580 -93 263 -424 386 -676 252 -71 -37 -175 -145 -208 -213 -76 -157 -63 -337
33 -482 37 -56 119 -131 171 -158 40 -20 43 -25 29 -48 -8 -12 -14 -12 -42 0
-34 14 -129 86 -163 123 -125 141 -165 370 -94 550 66 170 252 310 442 335 63
9 115 4 186 -16z m-29 -212 c82 -25 175 -120 204 -209 36 -110 -1 -247 -89
-330 -52 -49 -73 -57 -85 -33 -8 15 -2 25 33 56 98 85 127 186 86 302 -24 67
-66 114 -133 148 -71 35 -182 32 -249 -8 -173 -101 -178 -343 -10 -459 20 -14
22 -19 12 -37 -11 -21 -12 -21 -42 -4 -75 44 -137 146 -144 240 -19 230 193
400 417 334z m-57 -211 c14 -5 35 -24 46 -42 28 -46 19 -91 -25 -132 -20 -19
-35 -44 -36 -57 0 -13 -1 -100 0 -194 0 -93 -2 -178 -5 -187 -5 -17 -43 -26
-45 -10 -1 4 -3 90 -4 192 -2 102 -3 193 -4 202 -1 9 -19 38 -42 64 -33 39
-40 53 -35 76 16 78 79 116 150 88z m3210 -2137 c4 -9 7 -345 7 -747 0 -615
-3 -733 -14 -741 -9 -6 -69 -10 -142 -9 -102 0 -130 4 -139 16 -15 20 -16
1473 -1 1487 16 14 39 16 165 13 97 -3 119 -6 124 -19z m500 -26 c9 -4 13 -28
12 -86 -2 -113 -6 -116 -149 -117 -138 -2 -147 3 -156 83 -9 85 -4 110 25 120
25 8 245 8 268 0z m-2026 -71 c9 -5 12 -50 12 -156 0 -169 -1 -166 80 -169 24
0 49 -6 54 -11 15 -15 23 -119 13 -152 -8 -26 -12 -28 -67 -28 -37 0 -62 -5
-69 -14 -15 -17 -16 -552 -1 -590 12 -33 25 -39 87 -42 78 -3 81 -8 80 -125
-1 -111 -1 -113 -72 -120 -72 -7 -199 -2 -241 9 -50 14 -100 48 -127 84 -39
53 -45 108 -46 444 0 177 -4 329 -7 338 -4 11 -18 16 -44 16 -21 0 -42 6 -47
13 -5 6 -9 47 -9 90 2 86 8 97 63 97 17 0 35 5 38 10 4 6 7 74 7 151 0 97 3
143 12 152 14 13 262 17 284 3z m805 -316 c118 -25 194 -98 226 -217 15 -55
20 -311 6 -329 -8 -11 -52 -14 -207 -15 -153 0 -199 -3 -208 -14 -17 -20 -12
-235 7 -274 9 -17 21 -31 27 -32 6 0 22 -2 35 -3 38 -4 71 32 77 84 8 87 15
110 35 120 27 15 204 11 226 -5 13 -10 16 -27 15 -86 -2 -89 -8 -123 -33 -169
-57 -108 -166 -162 -324 -161 -192 0 -326 93 -363 251 -3 14 -6 151 -7 305 0
340 5 366 94 456 60 60 118 87 206 96 28 3 51 6 53 8 5 4 86 -4 135 -15z
m1224 -13 c9 -14 7 -1056 -1 -1065 -4 -4 -64 -7 -134 -7 -108 -1 -129 2 -144
17 -17 17 -18 51 -18 531 0 367 3 516 11 524 15 15 277 14 286 0z"/>
<path d="M1758 6183 c-39 -10 -34 -92 5 -94 53 -3 67 8 67 54 0 20 -7 30 -26
37 -14 6 -26 9 -27 9 -1 -1 -10 -3 -19 -6z"/>
<path d="M4157 3466 c-10 -8 -22 -29 -27 -47 -14 -47 -13 -146 1 -155 20 -12
119 -7 135 7 24 20 13 153 -15 183 -24 25 -68 31 -94 12z"/>
</g>
</svg>
